<svg xmlns="http://www.w3.org/2000/svg" viewBox="0 0 800 462.99999" width="800" height="463"><g stroke-width="1.221"><path class="st0" fill="none" stroke="#fff" stroke-width="7.325" stroke-miterlimit="10" d="M98.7 365H201l32.1-53-7.6 53h57.9l55.3-92.1-30.2-52.3-19.8 34.9 9.2-53.3-52.6-91.1zm534.4-162l-53-91.9L433.4 365h103.1l39-64h20.3L560 365h62.9l52.6-88.6-31.8-55.2-37.5 62.8-15-9.2zm-241 162l-42.5-73.4-42.4 73.4zm334.6 0l-42.4-73.4-42.4 73.4zm183.6-64h20.3l-35.8 64h62.9l52.6-88.6-95.4-165.3L768.2 365h103.1zm151.2 64l-42.4-73.4-42.5 73.4zm-335.3 43.7l-146.6 254-30.3-52.5 117.4-201.5zm155.1 96.2L852.7 555l-31.5-54.5 54.5-91.8h185.8l-146.6 254-50.9-88 32-58.6zm-636 157.8l39.9-69.1-23.4-41.7h26.6v-47H234l15.1-19.8h98.7l44.1-76.4H202.4l-52.6 88.6zm-146.6-254l42.4 73.5 42.4-73.5zm669.5 0l42.5 73.5 42.4-73.5z" transform="matrix(.82011 0 0 .81816 -75.749 -85.048)"/><path class="st0" fill="none" stroke="#fff" stroke-width="7.325" stroke-miterlimit="10" d="M924.824 273.8l8.247-11.437 15.33 11.055-8.247 11.436zM540.3 486.4l9.7 16.9 9.8-16.9z" transform="matrix(.82011 0 0 .81816 -75.749 -85.048)"/><path class="st0" fill="none" stroke="#fff" stroke-width="7.325" stroke-miterlimit="10" d="M433.4 410.2l105.2 182.2 105.2-182.2h-45.6l-31.6 54.7h-16l31.7-54.7zm488.8 63.7l-6.1 11.2h-23.4l6.3-11.2z" transform="matrix(.82011 0 0 .81816 -75.749 -85.048)"/></g></svg>